grf
version=1
nRows=11
nColumns=37
inDegrees=no
endheader
time	ground_force_1_vx	ground_force_1_vy	ground_force_1_vz	ground_force_1_px	ground_force_1_py	ground_force_1_pz	ground_moment_1_mx	ground_moment_1_my	ground_moment_1_mz	ground_force_2_vx	ground_force_2_vy	ground_force_2_vz	ground_force_2_px	ground_force_2_py	ground_force_2_pz	ground_moment_2_mx	ground_moment_2_my	ground_moment_2_mz	ground_force_3_vx	ground_force_3_vy	ground_force_3_vz	ground_force_3_px	ground_force_3_py	ground_force_3_pz	ground_moment_3_mx	ground_moment_3_my	ground_moment_3_mz	ground_force_4_vx	ground_force_4_vy	ground_force_4_vz	ground_force_4_px	ground_force_4_py	ground_force_4_pz	ground_moment_4_mx	ground_moment_4_my	ground_moment_4_mz
      6.70000000	      0.00000000	     -0.00000000	      0.00000000	      0.00000000	      0.00000000	      0.00000000	      0.00000000	      0.00000000	      0.00000000	    -60.34608841	    154.30334473	   -800.09423828	   -309.01679368	  -1204.04928313	      0.00000000	      0.00000000	     -0.00000000	   2788.34820553	    -33.49688954	   -157.58341687	  -1019.38494873	   -341.95450702	   -713.21649549	      0.00000000	      0.00000000	     -0.00000000	  -9504.24737480	      0.00000000	     -0.00000000	      0.00000000	      0.00000000	      0.00000000	      0.00000000	      0.00000000	      0.00000000	      0.00000000
      6.71000000	      0.00000000	     -0.00000000	      0.00000000	      0.00000000	      0.00000000	      0.00000000	      0.00000000	      0.00000000	      0.00000000	    -34.36275101	    150.04389954	   -782.29675293	   -311.88787336	  -1203.23615047	      0.00000000	      0.00000000	      0.00000000	   3603.36488147	    -59.18686505	   -155.02286775	   -949.97723389	   -338.42660590	   -713.44228025	      0.00000000	      0.00000000	     -0.00000000	  -8980.02370441	      0.00000000	     -0.00000000	      0.00000000	      0.00000000	      0.00000000	      0.00000000	      0.00000000	      0.00000000	      0.00000000
      6.72000000	      0.00000000	     -0.00000000	      0.00000000	      0.00000000	      0.00000000	      0.00000000	      0.00000000	      0.00000000	      0.00000000	    -48.74035263	    151.66519165	   -762.44665527	   -311.60819300	  -1202.72100955	      0.00000000	      0.00000000	      0.00000000	   3353.04869089	    -61.12462410	   -150.94176712	   -931.95440674	   -340.94782501	   -714.93572057	      0.00000000	      0.00000000	     -0.00000000	  -8745.84581440	      0.00000000	     -0.00000000	      0.00000000	      0.00000000	      0.00000000	      0.00000000	      0.00000000	      0.00000000	      0.00000000
      6.73000000	      0.00000000	     -0.00000000	      0.00000000	      0.00000000	      0.00000000	      0.00000000	      0.00000000	      0.00000000	      0.00000000	    -58.70051575	    152.27067566	   -755.79919434	   -313.46886307	  -1201.91011413	      0.00000000	      0.00000000	      0.00000000	   3116.89249972	    -46.84255400	   -151.66556903	   -951.64257812	   -347.61476829	   -715.71215060	      0.00000000	     -0.00000000	     -0.00000000	  -8760.24258610	      0.00000000	     -0.00000000	      0.00000000	      0.00000000	      0.00000000	      0.00000000	      0.00000000	      0.00000000	      0.00000000
      6.74000000	      0.00000000	     -0.00000000	      0.00000000	      0.00000000	      0.00000000	      0.00000000	      0.00000000	      0.00000000	      0.00000000	    -45.88024521	    152.07537842	   -769.21887207	   -321.26934839	  -1200.80631065	      0.00000000	      0.00000000	      0.00000000	   3732.54180774	    -37.17120921	   -151.29641399	   -951.65740967	   -351.95629436	   -716.77131849	      0.00000000	      0.00000000	     -0.00000000	  -8475.11099073	      0.00000000	     -0.00000000	      0.00000000	      0.00000000	      0.00000000	      0.00000000	      0.00000000	      0.00000000	      0.00000000
      6.75000000	      0.00000000	     -0.00000000	      0.00000000	      0.00000000	      0.00000000	      0.00000000	      0.00000000	      0.00000000	      0.00000000	    -18.17764282	    147.85246277	   -784.26965332	   -331.38632694	  -1198.92467489	      0.00000000	     -0.00000000	      0.00000000	   4454.45995005	    -39.20847821	   -144.51464501	   -922.68011475	   -353.94709121	   -717.66912614	      0.00000000	      0.00000000	     -0.00000000	  -8542.90579221	      0.00000000	     -0.00000000	      0.00000000	      0.00000000	      0.00000000	      0.00000000	      0.00000000	      0.00000000	      0.00000000
      6.76000000	      0.00000000	     -0.00000000	      0.00000000	      0.00000000	      0.00000000	      0.00000000	      0.00000000	      0.00000000	      0.00000000	     -3.47920990	    137.64401245	   -773.69348145	   -337.56699085	  -1197.28753015	      0.00000000	      0.00000000	      0.00000000	   5070.49137811	    -42.65297378	   -137.85738763	   -882.52209473	   -355.44155322	   -718.10486206	      0.00000000	      0.00000000	     -0.00000000	  -8168.18987674	      0.00000000	     -0.00000000	      0.00000000	      0.00000000	      0.00000000	      0.00000000	      0.00000000	      0.00000000	      0.00000000
      6.77000000	      0.00000000	     -0.00000000	      0.00000000	      0.00000000	      0.00000000	      0.00000000	      0.00000000	      0.00000000	      0.00000000	    -11.90966320	    124.89671326	   -730.61871338	   -337.75799437	  -1196.39989944	      0.00000000	      0.00000000	      0.00000000	   5106.48877911	    -41.94577067	   -135.59051147	   -838.61456299	   -357.03432150	   -717.77138164	      0.00000000	     -0.00000000	     -0.00000000	  -7446.79230176	      0.00000000	     -0.00000000	      0.00000000	      0.00000000	      0.00000000	      0.00000000	      0.00000000	      0.00000000	      0.00000000
      6.78000000	      0.00000000	     -0.00000000	      0.00000000	      0.00000000	      0.00000000	      0.00000000	      0.00000000	      0.00000000	      0.00000000	    -26.32742310	    112.27742767	   -672.70123291	   -336.13464801	  -1195.65814668	      0.00000000	      0.00000000	      0.00000000	   4679.00306891	    -39.76725395	   -131.77865253	   -790.36956787	   -358.78950107	   -717.68681407	      0.00000000	      0.00000000	     -0.00000000	  -6798.12156323	      0.00000000	     -0.00000000	      0.00000000	      0.00000000	      0.00000000	      0.00000000	      0.00000000	      0.00000000	      0.00000000
      6.79000000	      0.00000000	     -0.00000000	      0.00000000	      0.00000000	      0.00000000	      0.00000000	      0.00000000	      0.00000000	      0.00000000	    -32.66406250	    102.25590515	   -621.84680176	   -335.30026585	  -1195.61355719	      0.00000000	      0.00000000	      0.00000000	   4321.09692670	    -37.10068062	   -123.07104931	   -739.26672363	   -360.83238392	   -717.75708414	      0.00000000	      0.00000000	     -0.00000000	  -6687.57705507	      0.00000000	     -0.00000000	      0.00000000	      0.00000000	      0.00000000	      0.00000000	      0.00000000	      0.00000000	      0.00000000
      6.80000000	      0.00000000	     -0.00000000	      0.00000000	      0.00000000	      0.00000000	      0.00000000	      0.00000000	      0.00000000	      0.00000000	    -32.16856003	     93.07972717	   -576.41943359	   -336.94961572	  -1195.75272404	      0.00000000	      0.00000000	      0.00000000	   3987.69738880	    -33.99598538	   -113.12374581	   -686.53607178	   -363.52323559	   -717.67693460	      0.00000000	      0.00000000	     -0.00000000	  -6771.19363680	      0.00000000	     -0.00000000	      0.00000000	      0.00000000	      0.00000000	      0.00000000	      0.00000000	      0.00000000	      0.00000000
